<svg width="91" height="95" viewBox="0 0 91 95" fill="none" xmlns="http://www.w3.org/2000/svg">
<rect width="91" height="95" fill="#F5F5F5"/>
<path d="M25.75 4V17.05" stroke="#38A169" stroke-width="6.81158" stroke-miterlimit="10" stroke-linecap="round" stroke-linejoin="round"/>
<path d="M60.55 4V17.05" stroke="#38A169" stroke-width="6.81158" stroke-miterlimit="10" stroke-linecap="round" stroke-linejoin="round"/>
<path d="M70.12 88.39C77.8077 88.39 84.04 82.1578 84.04 74.47C84.04 66.7823 77.8077 60.55 70.12 60.55C62.4322 60.55 56.2 66.7823 56.2 74.47C56.2 82.1578 62.4322 88.39 70.12 88.39Z" stroke="#38A169" stroke-width="6.81158" stroke-linecap="round" stroke-linejoin="round"/>
<path d="M86.65 91L82.3 86.65" stroke="#38A169" stroke-width="6.81158" stroke-linecap="round" stroke-linejoin="round"/>
<path d="M6.17502 34.8408H80.125" stroke="#38A169" stroke-width="6.81158" stroke-miterlimit="10" stroke-linecap="round" stroke-linejoin="round"/>
<path d="M4 51.8935V32.275C4 19.225 10.525 10.525 25.75 10.525H60.55C75.775 10.525 82.3 19.225 82.3 32.275V51.85" stroke="#38A169" stroke-width="6.81158" stroke-miterlimit="10" stroke-linecap="round" stroke-linejoin="round"/>
<path d="M49.1095 91H25.75C10.525 91 4 82.3 4 69.25" stroke="#38A169" stroke-width="6.81158" stroke-miterlimit="10" stroke-linecap="round" stroke-linejoin="round"/>
<path d="M43.1261 54.895H43.1662" stroke="#38A169" stroke-width="9.08211" stroke-linecap="round" stroke-linejoin="round"/>
<path d="M27.0345 54.895H27.0744" stroke="#38A169" stroke-width="9.08211" stroke-linecap="round" stroke-linejoin="round"/>
<path d="M27.0345 67.945H27.0744" stroke="#38A169" stroke-width="9.08211" stroke-linecap="round" stroke-linejoin="round"/>
</svg>
